<svg width="26" height="28" viewBox="0 0 26 28" fill="none" xmlns="http://www.w3.org/2000/svg">
<path d="M2.8 28C2.03 28 1.37083 27.7258 0.8225 27.1775C0.274167 26.6292 0 25.97 0 25.2V5.6C0 4.83 0.274167 4.17083 0.8225 3.6225C1.37083 3.07417 2.03 2.8 2.8 2.8H8.68C8.98333 1.96 9.49083 1.28333 10.2025 0.77C10.9142 0.256667 11.7133 0 12.6 0C13.4867 0 14.2858 0.256667 14.9975 0.77C15.7092 1.28333 16.2167 1.96 16.52 2.8H22.4C23.17 2.8 23.8292 3.07417 24.3775 3.6225C24.9258 4.17083 25.2 4.83 25.2 5.6V25.2C25.2 25.97 24.9258 26.6292 24.3775 27.1775C23.8292 27.7258 23.17 28 22.4 28H2.8ZM5.6 22.4H15.4V19.6H5.6V22.4ZM5.6 16.8H19.6V14H5.6V16.8ZM5.6 11.2H19.6V8.4H5.6V11.2ZM12.6 4.55C12.9033 4.55 13.1542 4.45083 13.3525 4.2525C13.5508 4.05417 13.65 3.80333 13.65 3.5C13.65 3.19667 13.5508 2.94583 13.3525 2.7475C13.1542 2.54917 12.9033 2.45 12.6 2.45C12.2967 2.45 12.0458 2.54917 11.8475 2.7475C11.6492 2.94583 11.55 3.19667 11.55 3.5C11.55 3.80333 11.6492 4.05417 11.8475 4.2525C12.0458 4.45083 12.2967 4.55 12.6 4.55Z" fill="white"/>
</svg>
