<svg width="29" height="28" viewBox="0 0 29 28" fill="none" xmlns="http://www.w3.org/2000/svg">
<path d="M25.4757 28L16.9709 19.4951L20.233 16.233L28.7379 24.7379L25.4757 28ZM4.03884 28L0.776699 24.7379L11.4951 14.0194L8.85437 11.3786L7.76699 12.466L5.78641 10.4854V13.6699L4.69903 14.7573L0 10.0583L1.08738 8.97087H4.27185L2.3301 7.02913L7.84466 1.51456C8.36246 0.996764 8.91909 0.621359 9.51456 0.38835C10.11 0.15534 10.7184 0.038835 11.3398 0.038835C11.9612 0.038835 12.5696 0.15534 13.1651 0.38835C13.7605 0.621359 14.3172 0.996764 14.835 1.51456L11.2621 5.08738L13.2039 7.02913L12.1165 8.11651L14.7573 10.7573L18.2524 7.26214C18.1489 6.97735 18.0647 6.67961 18 6.36893C17.9353 6.05825 17.9029 5.74757 17.9029 5.43689C17.9029 3.90939 18.4272 2.62136 19.4757 1.57282C20.5243 0.524272 21.8123 0 23.3398 0C23.7282 0 24.0971 0.038835 24.4466 0.116505C24.7961 0.194175 25.1521 0.31068 25.5146 0.466019L21.6699 4.31068L24.466 7.1068L28.3107 3.26214C28.4919 3.6246 28.6149 3.98058 28.6796 4.3301C28.7443 4.67961 28.7767 5.04854 28.7767 5.43689C28.7767 6.9644 28.2524 8.25243 27.2039 9.30097C26.1553 10.3495 24.8673 10.8738 23.3398 10.8738C23.0291 10.8738 22.7184 10.8479 22.4078 10.7961C22.0971 10.7443 21.7994 10.6537 21.5146 10.5243L4.03884 28Z" fill="white"/>
</svg>
