<svg width="28" height="28" viewBox="0 0 28 28" fill="none" xmlns="http://www.w3.org/2000/svg">
<path d="M0.389471 11.606L6.33775 5.65741C6.66821 5.32694 7.05768 5.09088 7.50617 4.94925C7.95465 4.80762 8.41493 4.78401 8.88702 4.87843L10.7282 5.26792C9.45352 6.77867 8.45034 8.14779 7.7186 9.37528C6.98687 10.6028 6.27874 12.0899 5.59422 13.8367L0.389471 11.606ZM7.64779 14.8281C8.19069 13.1285 8.92832 11.5234 9.86069 10.0126C10.7931 8.50187 11.9202 7.08555 13.242 5.76364C15.3192 3.68636 17.6914 2.1343 20.3587 1.10746C23.026 0.0806195 25.5162 -0.232153 27.8295 0.16914C28.2307 2.48248 27.9239 4.97286 26.9089 7.64027C25.8939 10.3077 24.3478 12.68 22.2706 14.7573C20.9724 16.0556 19.5562 17.1828 18.0219 18.1388C16.4876 19.0948 14.8707 19.8443 13.1712 20.3872L7.64779 14.8281ZM17.42 10.5792C17.9629 11.1221 18.6297 11.3935 19.4204 11.3935C20.2112 11.3935 20.878 11.1221 21.4209 10.5792C21.9638 10.0362 22.2352 9.36938 22.2352 8.57859C22.2352 7.78781 21.9638 7.12095 21.4209 6.57803C20.878 6.0351 20.2112 5.76364 19.4204 5.76364C18.6297 5.76364 17.9629 6.0351 17.42 6.57803C16.8771 7.12095 16.6056 7.78781 16.6056 8.57859C16.6056 9.36938 16.8771 10.0362 17.42 10.5792ZM16.4286 27.6105L14.1626 22.4055C15.9093 21.7209 17.4023 21.0128 18.6415 20.281C19.8807 19.5492 21.2557 18.546 22.7663 17.2713L23.1204 19.1125C23.2148 19.5846 23.1912 20.0509 23.0496 20.5112C22.908 20.9715 22.6719 21.3669 22.3415 21.6973L16.4286 27.6105ZM2.65548 19.3604C3.48163 18.5342 4.48482 18.1152 5.66503 18.1034C6.84524 18.0916 7.84843 18.4988 8.67458 19.325C9.50073 20.1512 9.9138 21.1544 9.9138 22.3347C9.9138 23.515 9.50073 24.5182 8.67458 25.3444C8.08447 25.9345 7.09899 26.442 5.71814 26.8669C4.33729 27.2918 2.43124 27.6695 0 28C0.33046 25.5686 0.708129 23.6684 1.13301 22.2993C1.55788 20.9302 2.06538 19.9505 2.65548 19.3604Z" fill="white"/>
</svg>
